<svg xmlns="http://www.w3.org/2000/svg" width="626" height="86" shape-rendering="crispEdges">
<rect x="2" y="2" width="10" height="10" fill="#ebedf0"/>

<rect x="14" y="2" width="10" height="10" fill="#ebedf0"/>

<rect x="26" y="2" width="10" height="10" fill="#ebedf0"/>

<rect x="38" y="2" width="10" height="10" fill="#ebedf0"/>

<rect x="50" y="2" width="10" height="10" fill="#ebedf0"/>

<rect x="62" y="2" width="10" height="10" fill="#ebedf0"/>

<rect x="74" y="2" width="10" height="10" fill="#ebedf0"/>

<rect x="86" y="2" width="10" height="10" fill="#ebedf0"/>

<rect x="98" y="2" width="10" height="10" fill="#ebedf0"/>

<rect x="110" y="2" width="10" height="10" fill="#ebedf0"/>

<rect x="122" y="2" width="10" height="10" fill="#ebedf0"/>

<rect x="134" y="2" width="10" height="10" fill="#ebedf0"/>

<rect x="146" y="2" width="10" height="10" fill="#ebedf0"/>

<rect x="158" y="2" width="10" height="10" fill="#ebedf0"/>


<rect x="170" y="2" width="10" height="10">
    <animate attributeName="fill"
            values="#216e39 ;#30a14e ;#40c463 ;#9be9a8"
            dur="2s"
            repeatCount="indefinite"
            calcMode="discrete"/>
</rect>
<rect x="182" y="2" width="10" height="10" fill="#ebedf0"/>


<rect x="194" y="2" width="10" height="10">
    <animate attributeName="fill"
            values="#216e39 ;#30a14e ;#40c463 ;#9be9a8"
            dur="2s"
            repeatCount="indefinite"
            calcMode="discrete"/>
</rect>
<rect x="206" y="2" width="10" height="10" fill="#ebedf0"/>

<rect x="218" y="2" width="10" height="10" fill="#30a14e"/>

<rect x="230" y="2" width="10" height="10" fill="#30a14e"/>

<rect x="242" y="2" width="10" height="10" fill="#30a14e"/>

<rect x="254" y="2" width="10" height="10" fill="#ebedf0"/>


<rect x="266" y="2" width="10" height="10">
    <animate attributeName="fill"
            values="#40c463 ;#9be9a8 ;#216e39 ;#30a14e"
            dur="2s"
            repeatCount="indefinite"
            calcMode="discrete"/>
</rect>
<rect x="278" y="2" width="10" height="10" fill="#ebedf0"/>

<rect x="290" y="2" width="10" height="10" fill="#ebedf0"/>

<rect x="302" y="2" width="10" height="10" fill="#ebedf0"/>

<rect x="314" y="2" width="10" height="10" fill="#9be9a8"/>

<rect x="326" y="2" width="10" height="10" fill="#ebedf0"/>

<rect x="338" y="2" width="10" height="10" fill="#ebedf0"/>

<rect x="350" y="2" width="10" height="10" fill="#ebedf0"/>


<rect x="362" y="2" width="10" height="10">
    <animate attributeName="fill"
            values="#216e39 ;#30a14e ;#40c463 ;#9be9a8"
            dur="2s"
            repeatCount="indefinite"
            calcMode="discrete"/>
</rect>

<rect x="374" y="2" width="10" height="10">
    <animate attributeName="fill"
            values="#216e39 ;#30a14e ;#40c463 ;#9be9a8"
            dur="2s"
            repeatCount="indefinite"
            calcMode="discrete"/>
</rect>

<rect x="386" y="2" width="10" height="10">
    <animate attributeName="fill"
            values="#216e39 ;#30a14e ;#40c463 ;#9be9a8"
            dur="2s"
            repeatCount="indefinite"
            calcMode="discrete"/>
</rect>
<rect x="398" y="2" width="10" height="10" fill="#ebedf0"/>

<rect x="410" y="2" width="10" height="10" fill="#ebedf0"/>

<rect x="422" y="2" width="10" height="10" fill="#ebedf0"/>

<rect x="434" y="2" width="10" height="10" fill="#ebedf0"/>

<rect x="446" y="2" width="10" height="10" fill="#216e39"/>

<rect x="458" y="2" width="10" height="10" fill="#216e39"/>

<rect x="470" y="2" width="10" height="10" fill="#216e39"/>

<rect x="482" y="2" width="10" height="10" fill="#216e39"/>

<rect x="494" y="2" width="10" height="10" fill="#216e39"/>

<rect x="506" y="2" width="10" height="10" fill="#216e39"/>

<rect x="518" y="2" width="10" height="10" fill="#216e39"/>

<rect x="530" y="2" width="10" height="10" fill="#216e39"/>

<rect x="542" y="2" width="10" height="10" fill="#216e39"/>

<rect x="554" y="2" width="10" height="10" fill="#216e39"/>

<rect x="566" y="2" width="10" height="10" fill="#216e39"/>

<rect x="578" y="2" width="10" height="10" fill="#ebedf0"/>

<rect x="590" y="2" width="10" height="10" fill="#ebedf0"/>

<rect x="602" y="2" width="10" height="10" fill="#ebedf0"/>

<rect x="614" y="2" width="10" height="10" fill="#216e39"/>

<rect x="2" y="14" width="10" height="10" fill="#ebedf0"/>

<rect x="14" y="14" width="10" height="10" fill="#ebedf0"/>

<rect x="26" y="14" width="10" height="10" fill="#216e39"/>

<rect x="38" y="14" width="10" height="10" fill="#216e39"/>

<rect x="50" y="14" width="10" height="10" fill="#216e39"/>

<rect x="62" y="14" width="10" height="10" fill="#216e39"/>

<rect x="74" y="14" width="10" height="10" fill="#216e39"/>

<rect x="86" y="14" width="10" height="10" fill="#216e39"/>

<rect x="98" y="14" width="10" height="10" fill="#216e39"/>

<rect x="110" y="14" width="10" height="10" fill="#ebedf0"/>

<rect x="122" y="14" width="10" height="10" fill="#ebedf0"/>

<rect x="134" y="14" width="10" height="10" fill="#ebedf0"/>

<rect x="146" y="14" width="10" height="10" fill="#ebedf0"/>

<rect x="158" y="14" width="10" height="10" fill="#ebedf0"/>


<rect x="170" y="14" width="10" height="10">
    <animate attributeName="fill"
            values="#216e39 ;#30a14e ;#40c463 ;#9be9a8"
            dur="2s"
            repeatCount="indefinite"
            calcMode="discrete"/>
</rect>
<rect x="182" y="14" width="10" height="10" fill="#ebedf0"/>


<rect x="194" y="14" width="10" height="10">
    <animate attributeName="fill"
            values="#216e39 ;#30a14e ;#40c463 ;#9be9a8"
            dur="2s"
            repeatCount="indefinite"
            calcMode="discrete"/>
</rect>
<rect x="206" y="14" width="10" height="10" fill="#ebedf0"/>

<rect x="218" y="14" width="10" height="10" fill="#30a14e"/>

<rect x="230" y="14" width="10" height="10" fill="#ebedf0"/>

<rect x="242" y="14" width="10" height="10" fill="#ebedf0"/>

<rect x="254" y="14" width="10" height="10" fill="#ebedf0"/>


<rect x="266" y="14" width="10" height="10">
    <animate attributeName="fill"
            values="#40c463 ;#9be9a8 ;#216e39 ;#30a14e"
            dur="2s"
            repeatCount="indefinite"
            calcMode="discrete"/>
</rect>
<rect x="278" y="14" width="10" height="10" fill="#ebedf0"/>

<rect x="290" y="14" width="10" height="10" fill="#ebedf0"/>

<rect x="302" y="14" width="10" height="10" fill="#ebedf0"/>

<rect x="314" y="14" width="10" height="10" fill="#9be9a8"/>

<rect x="326" y="14" width="10" height="10" fill="#ebedf0"/>

<rect x="338" y="14" width="10" height="10" fill="#ebedf0"/>

<rect x="350" y="14" width="10" height="10" fill="#ebedf0"/>


<rect x="362" y="14" width="10" height="10">
    <animate attributeName="fill"
            values="#216e39 ;#30a14e ;#40c463 ;#9be9a8"
            dur="2s"
            repeatCount="indefinite"
            calcMode="discrete"/>
</rect>
<rect x="374" y="14" width="10" height="10" fill="#ebedf0"/>


<rect x="386" y="14" width="10" height="10">
    <animate attributeName="fill"
            values="#216e39 ;#30a14e ;#40c463 ;#9be9a8"
            dur="2s"
            repeatCount="indefinite"
            calcMode="discrete"/>
</rect>
<rect x="398" y="14" width="10" height="10" fill="#ebedf0"/>

<rect x="410" y="14" width="10" height="10" fill="#ebedf0"/>

<rect x="422" y="14" width="10" height="10" fill="#ebedf0"/>

<rect x="434" y="14" width="10" height="10" fill="#ebedf0"/>

<rect x="446" y="14" width="10" height="10" fill="#ebedf0"/>

<rect x="458" y="14" width="10" height="10" fill="#ebedf0"/>

<rect x="470" y="14" width="10" height="10" fill="#ebedf0"/>

<rect x="482" y="14" width="10" height="10" fill="#ebedf0"/>

<rect x="494" y="14" width="10" height="10" fill="#ebedf0"/>

<rect x="506" y="14" width="10" height="10" fill="#216e39"/>

<rect x="518" y="14" width="10" height="10" fill="#ebedf0"/>

<rect x="530" y="14" width="10" height="10" fill="#ebedf0"/>

<rect x="542" y="14" width="10" height="10" fill="#ebedf0"/>

<rect x="554" y="14" width="10" height="10" fill="#ebedf0"/>

<rect x="566" y="14" width="10" height="10" fill="#ebedf0"/>

<rect x="578" y="14" width="10" height="10" fill="#ebedf0"/>

<rect x="590" y="14" width="10" height="10" fill="#ebedf0"/>

<rect x="602" y="14" width="10" height="10" fill="#9be9a8"/>

<rect x="614" y="14" width="10" height="10" fill="#216e39"/>

<rect x="2" y="26" width="10" height="10" fill="#ebedf0"/>

<rect x="14" y="26" width="10" height="10" fill="#ebedf0"/>

<rect x="26" y="26" width="10" height="10" fill="#216e39"/>

<rect x="38" y="26" width="10" height="10" fill="#ebedf0"/>

<rect x="50" y="26" width="10" height="10" fill="#ebedf0"/>

<rect x="62" y="26" width="10" height="10" fill="#ebedf0"/>

<rect x="74" y="26" width="10" height="10" fill="#ebedf0"/>

<rect x="86" y="26" width="10" height="10" fill="#ebedf0"/>

<rect x="98" y="26" width="10" height="10" fill="#216e39"/>

<rect x="110" y="26" width="10" height="10" fill="#ebedf0"/>

<rect x="122" y="26" width="10" height="10" fill="#ebedf0"/>

<rect x="134" y="26" width="10" height="10" fill="#ebedf0"/>

<rect x="146" y="26" width="10" height="10" fill="#ebedf0"/>

<rect x="158" y="26" width="10" height="10" fill="#ebedf0"/>


<rect x="170" y="26" width="10" height="10">
    <animate attributeName="fill"
            values="#216e39 ;#30a14e ;#40c463 ;#9be9a8"
            dur="2s"
            repeatCount="indefinite"
            calcMode="discrete"/>
</rect>

<rect x="182" y="26" width="10" height="10">
    <animate attributeName="fill"
            values="#216e39 ;#30a14e ;#40c463 ;#9be9a8"
            dur="2s"
            repeatCount="indefinite"
            calcMode="discrete"/>
</rect>

<rect x="194" y="26" width="10" height="10">
    <animate attributeName="fill"
            values="#216e39 ;#30a14e ;#40c463 ;#9be9a8"
            dur="2s"
            repeatCount="indefinite"
            calcMode="discrete"/>
</rect>
<rect x="206" y="26" width="10" height="10" fill="#ebedf0"/>

<rect x="218" y="26" width="10" height="10" fill="#30a14e"/>

<rect x="230" y="26" width="10" height="10" fill="#30a14e"/>

<rect x="242" y="26" width="10" height="10" fill="#ebedf0"/>

<rect x="254" y="26" width="10" height="10" fill="#ebedf0"/>


<rect x="266" y="26" width="10" height="10">
    <animate attributeName="fill"
            values="#40c463 ;#9be9a8 ;#216e39 ;#30a14e"
            dur="2s"
            repeatCount="indefinite"
            calcMode="discrete"/>
</rect>
<rect x="278" y="26" width="10" height="10" fill="#ebedf0"/>

<rect x="290" y="26" width="10" height="10" fill="#ebedf0"/>

<rect x="302" y="26" width="10" height="10" fill="#ebedf0"/>

<rect x="314" y="26" width="10" height="10" fill="#9be9a8"/>

<rect x="326" y="26" width="10" height="10" fill="#ebedf0"/>

<rect x="338" y="26" width="10" height="10" fill="#ebedf0"/>

<rect x="350" y="26" width="10" height="10" fill="#ebedf0"/>


<rect x="362" y="26" width="10" height="10">
    <animate attributeName="fill"
            values="#216e39 ;#30a14e ;#40c463 ;#9be9a8"
            dur="2s"
            repeatCount="indefinite"
            calcMode="discrete"/>
</rect>
<rect x="374" y="26" width="10" height="10" fill="#ebedf0"/>


<rect x="386" y="26" width="10" height="10">
    <animate attributeName="fill"
            values="#216e39 ;#30a14e ;#40c463 ;#9be9a8"
            dur="2s"
            repeatCount="indefinite"
            calcMode="discrete"/>
</rect>
<rect x="398" y="26" width="10" height="10" fill="#ebedf0"/>

<rect x="410" y="26" width="10" height="10" fill="#ebedf0"/>

<rect x="422" y="26" width="10" height="10" fill="#ebedf0"/>

<rect x="434" y="26" width="10" height="10" fill="#ebedf0"/>

<rect x="446" y="26" width="10" height="10" fill="#ebedf0"/>

<rect x="458" y="26" width="10" height="10" fill="#ebedf0"/>

<rect x="470" y="26" width="10" height="10" fill="#ebedf0"/>

<rect x="482" y="26" width="10" height="10" fill="#ebedf0"/>

<rect x="494" y="26" width="10" height="10" fill="#ebedf0"/>

<rect x="506" y="26" width="10" height="10" fill="#216e39"/>

<rect x="518" y="26" width="10" height="10" fill="#ebedf0"/>

<rect x="530" y="26" width="10" height="10" fill="#ebedf0"/>

<rect x="542" y="26" width="10" height="10" fill="#ebedf0"/>

<rect x="554" y="26" width="10" height="10" fill="#ebedf0"/>

<rect x="566" y="26" width="10" height="10" fill="#ebedf0"/>

<rect x="578" y="26" width="10" height="10" fill="#ebedf0"/>

<rect x="590" y="26" width="10" height="10" fill="#40c463"/>

<rect x="602" y="26" width="10" height="10" fill="#40c463"/>

<rect x="614" y="26" width="10" height="10" fill="#9be9a8"/>

<rect x="2" y="38" width="10" height="10" fill="#ebedf0"/>

<rect x="14" y="38" width="10" height="10" fill="#ebedf0"/>

<rect x="26" y="38" width="10" height="10" fill="#216e39"/>

<rect x="38" y="38" width="10" height="10" fill="#ebedf0"/>

<rect x="50" y="38" width="10" height="10" fill="#ebedf0"/>

<rect x="62" y="38" width="10" height="10" fill="#ebedf0"/>

<rect x="74" y="38" width="10" height="10" fill="#ebedf0"/>

<rect x="86" y="38" width="10" height="10" fill="#216e39"/>

<rect x="98" y="38" width="10" height="10" fill="#216e39"/>

<rect x="110" y="38" width="10" height="10" fill="#216e39"/>

<rect x="122" y="38" width="10" height="10" fill="#ebedf0"/>

<rect x="134" y="38" width="10" height="10" fill="#ebedf0"/>

<rect x="146" y="38" width="10" height="10" fill="#ebedf0"/>

<rect x="158" y="38" width="10" height="10" fill="#ebedf0"/>


<rect x="170" y="38" width="10" height="10">
    <animate attributeName="fill"
            values="#216e39 ;#30a14e ;#40c463 ;#9be9a8"
            dur="2s"
            repeatCount="indefinite"
            calcMode="discrete"/>
</rect>
<rect x="182" y="38" width="10" height="10" fill="#ebedf0"/>


<rect x="194" y="38" width="10" height="10">
    <animate attributeName="fill"
            values="#216e39 ;#30a14e ;#40c463 ;#9be9a8"
            dur="2s"
            repeatCount="indefinite"
            calcMode="discrete"/>
</rect>
<rect x="206" y="38" width="10" height="10" fill="#ebedf0"/>

<rect x="218" y="38" width="10" height="10" fill="#30a14e"/>

<rect x="230" y="38" width="10" height="10" fill="#ebedf0"/>

<rect x="242" y="38" width="10" height="10" fill="#ebedf0"/>

<rect x="254" y="38" width="10" height="10" fill="#ebedf0"/>


<rect x="266" y="38" width="10" height="10">
    <animate attributeName="fill"
            values="#40c463 ;#9be9a8 ;#216e39 ;#30a14e"
            dur="2s"
            repeatCount="indefinite"
            calcMode="discrete"/>
</rect>
<rect x="278" y="38" width="10" height="10" fill="#ebedf0"/>

<rect x="290" y="38" width="10" height="10" fill="#ebedf0"/>

<rect x="302" y="38" width="10" height="10" fill="#ebedf0"/>

<rect x="314" y="38" width="10" height="10" fill="#9be9a8"/>

<rect x="326" y="38" width="10" height="10" fill="#ebedf0"/>

<rect x="338" y="38" width="10" height="10" fill="#ebedf0"/>

<rect x="350" y="38" width="10" height="10" fill="#ebedf0"/>


<rect x="362" y="38" width="10" height="10">
    <animate attributeName="fill"
            values="#216e39 ;#30a14e ;#40c463 ;#9be9a8"
            dur="2s"
            repeatCount="indefinite"
            calcMode="discrete"/>
</rect>
<rect x="374" y="38" width="10" height="10" fill="#ebedf0"/>


<rect x="386" y="38" width="10" height="10">
    <animate attributeName="fill"
            values="#216e39 ;#30a14e ;#40c463 ;#9be9a8"
            dur="2s"
            repeatCount="indefinite"
            calcMode="discrete"/>
</rect>
<rect x="398" y="38" width="10" height="10" fill="#ebedf0"/>

<rect x="410" y="38" width="10" height="10" fill="#ebedf0"/>

<rect x="422" y="38" width="10" height="10" fill="#ebedf0"/>

<rect x="434" y="38" width="10" height="10" fill="#ebedf0"/>

<rect x="446" y="38" width="10" height="10" fill="#ebedf0"/>

<rect x="458" y="38" width="10" height="10" fill="#ebedf0"/>

<rect x="470" y="38" width="10" height="10" fill="#ebedf0"/>

<rect x="482" y="38" width="10" height="10" fill="#ebedf0"/>

<rect x="494" y="38" width="10" height="10" fill="#216e39"/>

<rect x="506" y="38" width="10" height="10" fill="#216e39"/>

<rect x="518" y="38" width="10" height="10" fill="#216e39"/>

<rect x="530" y="38" width="10" height="10" fill="#ebedf0"/>

<rect x="542" y="38" width="10" height="10" fill="#ebedf0"/>

<rect x="554" y="38" width="10" height="10" fill="#ebedf0"/>

<rect x="566" y="38" width="10" height="10" fill="#ebedf0"/>

<rect x="578" y="38" width="10" height="10" fill="#30a14e"/>

<rect x="590" y="38" width="10" height="10" fill="#9be9a8"/>

<rect x="602" y="38" width="10" height="10" fill="#9be9a8"/>

<rect x="614" y="38" width="10" height="10" fill="#9be9a8"/>

<rect x="2" y="50" width="10" height="10" fill="#ebedf0"/>

<rect x="14" y="50" width="10" height="10" fill="#ebedf0"/>

<rect x="26" y="50" width="10" height="10" fill="#216e39"/>

<rect x="38" y="50" width="10" height="10" fill="#ebedf0"/>

<rect x="50" y="50" width="10" height="10" fill="#ebedf0"/>

<rect x="62" y="50" width="10" height="10" fill="#ebedf0"/>

<rect x="74" y="50" width="10" height="10" fill="#ebedf0"/>

<rect x="86" y="50" width="10" height="10" fill="#216e39"/>

<rect x="98" y="50" width="10" height="10" fill="#ebedf0"/>

<rect x="110" y="50" width="10" height="10" fill="#216e39"/>

<rect x="122" y="50" width="10" height="10" fill="#ebedf0"/>

<rect x="134" y="50" width="10" height="10" fill="#ebedf0"/>

<rect x="146" y="50" width="10" height="10" fill="#ebedf0"/>

<rect x="158" y="50" width="10" height="10" fill="#ebedf0"/>


<rect x="170" y="50" width="10" height="10">
    <animate attributeName="fill"
            values="#216e39 ;#30a14e ;#40c463 ;#9be9a8"
            dur="2s"
            repeatCount="indefinite"
            calcMode="discrete"/>
</rect>
<rect x="182" y="50" width="10" height="10" fill="#ebedf0"/>


<rect x="194" y="50" width="10" height="10">
    <animate attributeName="fill"
            values="#216e39 ;#30a14e ;#40c463 ;#9be9a8"
            dur="2s"
            repeatCount="indefinite"
            calcMode="discrete"/>
</rect>
<rect x="206" y="50" width="10" height="10" fill="#ebedf0"/>

<rect x="218" y="50" width="10" height="10" fill="#30a14e"/>

<rect x="230" y="50" width="10" height="10" fill="#30a14e"/>

<rect x="242" y="50" width="10" height="10" fill="#30a14e"/>

<rect x="254" y="50" width="10" height="10" fill="#ebedf0"/>


<rect x="266" y="50" width="10" height="10">
    <animate attributeName="fill"
            values="#40c463 ;#9be9a8 ;#216e39 ;#30a14e"
            dur="2s"
            repeatCount="indefinite"
            calcMode="discrete"/>
</rect>

<rect x="278" y="50" width="10" height="10">
    <animate attributeName="fill"
            values="#40c463 ;#9be9a8 ;#216e39 ;#30a14e"
            dur="2s"
            repeatCount="indefinite"
            calcMode="discrete"/>
</rect>

<rect x="290" y="50" width="10" height="10">
    <animate attributeName="fill"
            values="#40c463 ;#9be9a8 ;#216e39 ;#30a14e"
            dur="2s"
            repeatCount="indefinite"
            calcMode="discrete"/>
</rect>
<rect x="302" y="50" width="10" height="10" fill="#ebedf0"/>

<rect x="314" y="50" width="10" height="10" fill="#9be9a8"/>

<rect x="326" y="50" width="10" height="10" fill="#9be9a8"/>

<rect x="338" y="50" width="10" height="10" fill="#9be9a8"/>

<rect x="350" y="50" width="10" height="10" fill="#ebedf0"/>


<rect x="362" y="50" width="10" height="10">
    <animate attributeName="fill"
            values="#216e39 ;#30a14e ;#40c463 ;#9be9a8"
            dur="2s"
            repeatCount="indefinite"
            calcMode="discrete"/>
</rect>

<rect x="374" y="50" width="10" height="10">
    <animate attributeName="fill"
            values="#216e39 ;#30a14e ;#40c463 ;#9be9a8"
            dur="2s"
            repeatCount="indefinite"
            calcMode="discrete"/>
</rect>

<rect x="386" y="50" width="10" height="10">
    <animate attributeName="fill"
            values="#216e39 ;#30a14e ;#40c463 ;#9be9a8"
            dur="2s"
            repeatCount="indefinite"
            calcMode="discrete"/>
</rect>
<rect x="398" y="50" width="10" height="10" fill="#ebedf0"/>

<rect x="410" y="50" width="10" height="10" fill="#ebedf0"/>

<rect x="422" y="50" width="10" height="10" fill="#ebedf0"/>

<rect x="434" y="50" width="10" height="10" fill="#ebedf0"/>

<rect x="446" y="50" width="10" height="10" fill="#ebedf0"/>

<rect x="458" y="50" width="10" height="10" fill="#ebedf0"/>

<rect x="470" y="50" width="10" height="10" fill="#ebedf0"/>

<rect x="482" y="50" width="10" height="10" fill="#ebedf0"/>

<rect x="494" y="50" width="10" height="10" fill="#216e39"/>

<rect x="506" y="50" width="10" height="10" fill="#ebedf0"/>

<rect x="518" y="50" width="10" height="10" fill="#216e39"/>

<rect x="530" y="50" width="10" height="10" fill="#ebedf0"/>

<rect x="542" y="50" width="10" height="10" fill="#ebedf0"/>

<rect x="554" y="50" width="10" height="10" fill="#ebedf0"/>

<rect x="566" y="50" width="10" height="10" fill="#9be9a8"/>

<rect x="578" y="50" width="10" height="10" fill="#9be9a8"/>

<rect x="590" y="50" width="10" height="10" fill="#9be9a8"/>

<rect x="602" y="50" width="10" height="10" fill="#9be9a8"/>

<rect x="614" y="50" width="10" height="10" fill="#216e39"/>

<rect x="2" y="62" width="10" height="10" fill="#ebedf0"/>

<rect x="14" y="62" width="10" height="10" fill="#216e39"/>

<rect x="26" y="62" width="10" height="10" fill="#216e39"/>

<rect x="38" y="62" width="10" height="10" fill="#216e39"/>

<rect x="50" y="62" width="10" height="10" fill="#ebedf0"/>

<rect x="62" y="62" width="10" height="10" fill="#ebedf0"/>

<rect x="74" y="62" width="10" height="10" fill="#ebedf0"/>

<rect x="86" y="62" width="10" height="10" fill="#ebedf0"/>

<rect x="98" y="62" width="10" height="10" fill="#ebedf0"/>

<rect x="110" y="62" width="10" height="10" fill="#ebedf0"/>

<rect x="122" y="62" width="10" height="10" fill="#ebedf0"/>

<rect x="134" y="62" width="10" height="10" fill="#ebedf0"/>

<rect x="146" y="62" width="10" height="10" fill="#ebedf0"/>

<rect x="158" y="62" width="10" height="10" fill="#ebedf0"/>

<rect x="170" y="62" width="10" height="10" fill="#ebedf0"/>

<rect x="182" y="62" width="10" height="10" fill="#ebedf0"/>

<rect x="194" y="62" width="10" height="10" fill="#ebedf0"/>

<rect x="206" y="62" width="10" height="10" fill="#ebedf0"/>

<rect x="218" y="62" width="10" height="10" fill="#ebedf0"/>

<rect x="230" y="62" width="10" height="10" fill="#ebedf0"/>

<rect x="242" y="62" width="10" height="10" fill="#ebedf0"/>

<rect x="254" y="62" width="10" height="10" fill="#ebedf0"/>

<rect x="266" y="62" width="10" height="10" fill="#ebedf0"/>

<rect x="278" y="62" width="10" height="10" fill="#ebedf0"/>

<rect x="290" y="62" width="10" height="10" fill="#ebedf0"/>

<rect x="302" y="62" width="10" height="10" fill="#ebedf0"/>

<rect x="314" y="62" width="10" height="10" fill="#ebedf0"/>

<rect x="326" y="62" width="10" height="10" fill="#ebedf0"/>

<rect x="338" y="62" width="10" height="10" fill="#ebedf0"/>

<rect x="350" y="62" width="10" height="10" fill="#ebedf0"/>

<rect x="362" y="62" width="10" height="10" fill="#ebedf0"/>

<rect x="374" y="62" width="10" height="10" fill="#ebedf0"/>

<rect x="386" y="62" width="10" height="10" fill="#ebedf0"/>

<rect x="398" y="62" width="10" height="10" fill="#ebedf0"/>

<rect x="410" y="62" width="10" height="10" fill="#ebedf0"/>

<rect x="422" y="62" width="10" height="10" fill="#ebedf0"/>

<rect x="434" y="62" width="10" height="10" fill="#ebedf0"/>

<rect x="446" y="62" width="10" height="10" fill="#ebedf0"/>

<rect x="458" y="62" width="10" height="10" fill="#ebedf0"/>

<rect x="470" y="62" width="10" height="10" fill="#ebedf0"/>

<rect x="482" y="62" width="10" height="10" fill="#ebedf0"/>

<rect x="494" y="62" width="10" height="10" fill="#ebedf0"/>

<rect x="506" y="62" width="10" height="10" fill="#ebedf0"/>

<rect x="518" y="62" width="10" height="10" fill="#ebedf0"/>

<rect x="530" y="62" width="10" height="10" fill="#ebedf0"/>

<rect x="542" y="62" width="10" height="10" fill="#ebedf0"/>

<rect x="554" y="62" width="10" height="10" fill="#216e39"/>

<rect x="566" y="62" width="10" height="10" fill="#216e39"/>

<rect x="578" y="62" width="10" height="10" fill="#9be9a8"/>

<rect x="590" y="62" width="10" height="10" fill="#216e39"/>

<rect x="602" y="62" width="10" height="10" fill="#40c463"/>

<rect x="614" y="62" width="10" height="10" fill="#40c463"/>

<rect x="2" y="74" width="10" height="10" fill="#216e39"/>

<rect x="14" y="74" width="10" height="10" fill="#216e39"/>

<rect x="26" y="74" width="10" height="10" fill="#216e39"/>

<rect x="38" y="74" width="10" height="10" fill="#216e39"/>

<rect x="50" y="74" width="10" height="10" fill="#216e39"/>

<rect x="62" y="74" width="10" height="10" fill="#ebedf0"/>

<rect x="74" y="74" width="10" height="10" fill="#ebedf0"/>

<rect x="86" y="74" width="10" height="10" fill="#216e39"/>

<rect x="98" y="74" width="10" height="10" fill="#216e39"/>

<rect x="110" y="74" width="10" height="10" fill="#216e39"/>

<rect x="122" y="74" width="10" height="10" fill="#216e39"/>

<rect x="134" y="74" width="10" height="10" fill="#216e39"/>

<rect x="146" y="74" width="10" height="10" fill="#216e39"/>

<rect x="158" y="74" width="10" height="10" fill="#216e39"/>

<rect x="170" y="74" width="10" height="10" fill="#216e39"/>

<rect x="182" y="74" width="10" height="10" fill="#216e39"/>

<rect x="194" y="74" width="10" height="10" fill="#216e39"/>

<rect x="206" y="74" width="10" height="10" fill="#216e39"/>

<rect x="218" y="74" width="10" height="10" fill="#216e39"/>

<rect x="230" y="74" width="10" height="10" fill="#216e39"/>

<rect x="242" y="74" width="10" height="10" fill="#216e39"/>

<rect x="254" y="74" width="10" height="10" fill="#216e39"/>

<rect x="266" y="74" width="10" height="10" fill="#216e39"/>

<rect x="278" y="74" width="10" height="10" fill="#216e39"/>

<rect x="290" y="74" width="10" height="10" fill="#216e39"/>

<rect x="302" y="74" width="10" height="10" fill="#216e39"/>

<rect x="314" y="74" width="10" height="10" fill="#216e39"/>

<rect x="326" y="74" width="10" height="10" fill="#216e39"/>

<rect x="338" y="74" width="10" height="10" fill="#216e39"/>

<rect x="350" y="74" width="10" height="10" fill="#216e39"/>

<rect x="362" y="74" width="10" height="10" fill="#216e39"/>

<rect x="374" y="74" width="10" height="10" fill="#216e39"/>

<rect x="386" y="74" width="10" height="10" fill="#216e39"/>

<rect x="398" y="74" width="10" height="10" fill="#216e39"/>

<rect x="410" y="74" width="10" height="10" fill="#216e39"/>

<rect x="422" y="74" width="10" height="10" fill="#216e39"/>

<rect x="434" y="74" width="10" height="10" fill="#216e39"/>

<rect x="446" y="74" width="10" height="10" fill="#216e39"/>

<rect x="458" y="74" width="10" height="10" fill="#216e39"/>

<rect x="470" y="74" width="10" height="10" fill="#216e39"/>

<rect x="482" y="74" width="10" height="10" fill="#ebedf0"/>

<rect x="494" y="74" width="10" height="10" fill="#ebedf0"/>

<rect x="506" y="74" width="10" height="10" fill="#ebedf0"/>

<rect x="518" y="74" width="10" height="10" fill="#9be9a8"/>

<rect x="530" y="74" width="10" height="10" fill="#216e39"/>

<rect x="542" y="74" width="10" height="10" fill="#9be9a8"/>

<rect x="554" y="74" width="10" height="10" fill="#40c463"/>

<rect x="566" y="74" width="10" height="10" fill="#40c463"/>

<rect x="578" y="74" width="10" height="10" fill="#216e39"/>

<rect x="590" y="74" width="10" height="10" fill="#9be9a8"/>

<rect x="602" y="74" width="10" height="10" fill="#9be9a8"/>

<rect x="614" y="74" width="10" height="10" fill="#40c463"/>


<rect x="422" y="2" width="10" height="10" fill="#216e39">
    <animate attributeName="x"
             values="422;422;74;74"
             keyTimes="0.0;0.143;0.971;1.0"
             begin="0s"
             dur="8s"
             repeatCount="indefinite"
             fill="freeze"
             calcMode="linear"/>
    <animate attributeName="y"
             values="2;62;62;74"
             keyTimes="0.0;0.143;0.971;1.0"
             begin="0s"
             dur="8s"
             repeatCount="indefinite"
             fill="freeze"
             calcMode="linear"/>
</rect>

<rect x="422" y="2" width="10" height="10" fill="#9be9a8">
    <animate attributeName="x"
             values="422;422;74;74"
             keyTimes="0.0;0.143;0.971;1.0"
             begin="2s"
             dur="8s"
             repeatCount="indefinite"
             fill="freeze"
             calcMode="linear"/>
    <animate attributeName="y"
             values="2;62;62;74"
             keyTimes="0.0;0.143;0.971;1.0"
             begin="2s"
             dur="8s"
             repeatCount="indefinite"
             fill="freeze"
             calcMode="linear"/>
</rect>

<rect x="422" y="2" width="10" height="10" fill="#30a14e">
    <animate attributeName="x"
             values="422;422;74;74"
             keyTimes="0.0;0.143;0.971;1.0"
             begin="4s"
             dur="8s"
             repeatCount="indefinite"
             fill="freeze"
             calcMode="linear"/>
    <animate attributeName="y"
             values="2;62;62;74"
             keyTimes="0.0;0.143;0.971;1.0"
             begin="4s"
             dur="8s"
             repeatCount="indefinite"
             fill="freeze"
             calcMode="linear"/>
</rect>

<rect x="422" y="2" width="10" height="10" fill="#40c463">
    <animate attributeName="x"
             values="422;422;74;74"
             keyTimes="0.0;0.143;0.971;1.0"
             begin="6s"
             dur="8s"
             repeatCount="indefinite"
             fill="freeze"
             calcMode="linear"/>
    <animate attributeName="y"
             values="2;62;62;74"
             keyTimes="0.0;0.143;0.971;1.0"
             begin="6s"
             dur="8s"
             repeatCount="indefinite"
             fill="freeze"
             calcMode="linear"/>
</rect>
</svg>